<svg width="240" height="240" viewBox="0 0 240 240" fill="none" xmlns="http://www.w3.org/2000/svg">
  <defs>
    <radialGradient id="paint0_radial" cx="0" cy="0" r="1" gradientUnits="userSpaceOnUse" gradientTransform="translate(120 80) rotate(90) scale(160 160)">
      <stop stop-color="#FFF6FF" />
      <stop offset="1" stop-color="#E3E6FF" />
    </radialGradient>
    <linearGradient id="paint1_linear" x1="40" y1="160" x2="200" y2="160" gradientUnits="userSpaceOnUse">
      <stop stop-color="#FFB7E0" />
      <stop offset="1" stop-color="#A7C7FF" />
    </linearGradient>
  </defs>
  <rect x="12" y="16" width="216" height="208" rx="40" fill="url(#paint0_radial)" />
  <path d="M63 88C59 72 59 54 75 58C91 62 92 84 92 84" stroke="#6C5CFF" stroke-width="6" stroke-linecap="round" />
  <path d="M177 88C181 72 181 54 165 58C149 62 148 84 148 84" stroke="#6C5CFF" stroke-width="6" stroke-linecap="round" />
  <path d="M70 122C70 96 91 72 120 72C149 72 170 96 170 122C170 154 150 184 120 184C90 184 70 154 70 122Z" fill="#FFFFFF" stroke="#6C5CFF" stroke-width="6" />
  <ellipse cx="97" cy="122" rx="10" ry="14" fill="#6C5CFF" />
  <ellipse cx="143" cy="122" rx="10" ry="14" fill="#6C5CFF" />
  <path d="M106 150C111 156 117 160 120 160C123 160 129 156 134 150" stroke="#F4749A" stroke-width="6" stroke-linecap="round" />
  <path d="M52 168C62 164 76 164 82 184" stroke="#6C5CFF" stroke-width="6" stroke-linecap="round" />
  <path d="M50 170C44 182 42 192 47 200C53 208 66 206 74 198C79 193 82 184 82 184C82 184 62 182 52 168Z" fill="url(#paint1_linear)" />
  <path d="M80 140C64 150 58 166 66 170C72 172 83 164 88 158" stroke="#6C5CFF" stroke-width="6" stroke-linecap="round" />
  <circle cx="88" cy="152" r="4" fill="#F4749A" />
  <path d="M180 164C170 160 156 160 150 180" stroke="#6C5CFF" stroke-width="6" stroke-linecap="round" />
  <circle cx="180" cy="158" r="12" fill="#FFD8F0" stroke="#6C5CFF" stroke-width="4" />
  <path d="M180 146C180 140 188 138 190 146C192 154 180 170 180 170C180 170 168 154 170 146C172 138 180 140 180 146Z" fill="#FF82B5" />
</svg>
