<svg width="240" height="240" viewBox="0 0 240 240" fill="none" xmlns="http://www.w3.org/2000/svg">
  <defs>
    <radialGradient id="paint0_radial" cx="0" cy="0" r="1" gradientUnits="userSpaceOnUse" gradientTransform="translate(120 100) rotate(90) scale(180 160)">
      <stop stop-color="#F4F7FF" />
      <stop offset="1" stop-color="#D1D9FF" />
    </radialGradient>
    <linearGradient id="paint1_linear" x1="60" y1="180" x2="180" y2="180" gradientUnits="userSpaceOnUse">
      <stop stop-color="#92A6FF" />
      <stop offset="1" stop-color="#EF90FF" />
    </linearGradient>
  </defs>
  <rect x="16" y="20" width="208" height="200" rx="36" fill="url(#paint0_radial)" />
  <path d="M72 92C68 74 68 58 82 62C96 66 97 84 97 84" stroke="#5862C4" stroke-width="6" stroke-linecap="round" />
  <path d="M168 92C172 74 172 58 158 62C144 66 143 84 143 84" stroke="#5862C4" stroke-width="6" stroke-linecap="round" />
  <path d="M70 126C70 100 92 78 120 78C148 78 170 100 170 126C170 156 150 182 120 182C90 182 70 156 70 126Z" fill="#FFFFFF" stroke="#5862C4" stroke-width="6" />
  <ellipse cx="98" cy="126" rx="11" ry="13" fill="#5862C4" />
  <ellipse cx="142" cy="126" rx="11" ry="13" fill="#5862C4" />
  <path d="M110 152C116 148 124 148 130 152" stroke="#5862C4" stroke-width="6" stroke-linecap="round" />
  <path d="M64 168C58 176 60 184 68 188C74 190 84 186 94 176" stroke="#5862C4" stroke-width="6" stroke-linecap="round" />
  <path d="M170 168C176 176 174 184 166 188C160 190 150 186 140 176" stroke="#5862C4" stroke-width="6" stroke-linecap="round" />
  <circle cx="110" cy="110" r="6" fill="#92A6FF" />
  <path d="M60 184C52 198 56 208 70 206C84 204 100 188 100 188" stroke="#92A6FF" stroke-width="6" stroke-linecap="round" />
  <path d="M180 184C188 198 184 208 170 206C156 204 140 188 140 188" stroke="#92A6FF" stroke-width="6" stroke-linecap="round" />
  <path d="M122 58C126 50 138 52 134 64C131 74 112 70 112 70" stroke="#5862C4" stroke-width="6" stroke-linecap="round" />
  <path d="M102 72C98 64 84 68 88 80C91 90 108 86 108 86" stroke="#5862C4" stroke-width="6" stroke-linecap="round" />
  <path d="M120 190C144 190 160 204 160 214H80C80 204 96 190 120 190Z" fill="url(#paint1_linear)" />
</svg>
