<svg width="240" height="240" viewBox="0 0 240 240" fill="none" xmlns="http://www.w3.org/2000/svg">
  <defs>
    <radialGradient id="paint0_radial" cx="0" cy="0" r="1" gradientUnits="userSpaceOnUse" gradientTransform="translate(120 90) rotate(90) scale(180 160)">
      <stop stop-color="#FFF2F2" />
      <stop offset="1" stop-color="#FFCACA" />
    </radialGradient>
    <linearGradient id="paint1_linear" x1="40" y1="200" x2="200" y2="200" gradientUnits="userSpaceOnUse">
      <stop stop-color="#FF6B6B" />
      <stop offset="1" stop-color="#A31F1F" />
    </linearGradient>
  </defs>
  <rect x="12" y="20" width="216" height="204" rx="40" fill="url(#paint0_radial)" />
  <path d="M68 90C60 70 64 50 80 56C94 60 96 78 96 78" stroke="#8B1D3B" stroke-width="7" stroke-linecap="round" />
  <path d="M172 90C180 70 176 50 160 56C146 60 144 78 144 78" stroke="#8B1D3B" stroke-width="7" stroke-linecap="round" />
  <path d="M70 128C70 100 92 80 120 80C148 80 170 100 170 128C170 158 150 186 120 186C90 186 70 158 70 128Z" fill="#FFFFFF" stroke="#8B1D3B" stroke-width="7" />
  <path d="M90 122L102 116L96 132" stroke="#8B1D3B" stroke-width="7" stroke-linecap="round" stroke-linejoin="round" />
  <path d="M150 122L138 116L144 132" stroke="#8B1D3B" stroke-width="7" stroke-linecap="round" stroke-linejoin="round" />
  <path d="M110 150C116 158 124 158 130 150" stroke="#8B1D3B" stroke-width="7" stroke-linecap="round" />
  <path d="M64 166C58 176 60 188 72 190C84 192 98 182 104 170" stroke="#8B1D3B" stroke-width="7" stroke-linecap="round" />
  <path d="M176 166C182 176 180 188 168 190C156 192 142 182 136 170" stroke="#8B1D3B" stroke-width="7" stroke-linecap="round" />
  <path d="M80 156C74 146 80 136 92 138" stroke="#8B1D3B" stroke-width="7" stroke-linecap="round" />
  <path d="M160 156C166 146 160 136 148 138" stroke="#8B1D3B" stroke-width="7" stroke-linecap="round" />
  <path d="M120 62C135 62 146 52 150 40C138 44 126 46 114 46" stroke="#8B1D3B" stroke-width="7" stroke-linecap="round" />
  <path d="M82 48C88 40 102 38 110 46" stroke="#8B1D3B" stroke-width="7" stroke-linecap="round" />
  <path d="M120 184C148 184 168 204 168 216H72C72 204 92 184 120 184Z" fill="url(#paint1_linear)" />
  <path d="M52 214C44 207 46 198 56 194C62 192 74 194 82 202" stroke="#8B1D3B" stroke-width="7" stroke-linecap="round" />
  <path d="M188 214C196 207 194 198 184 194C178 192 166 194 158 202" stroke="#8B1D3B" stroke-width="7" stroke-linecap="round" />
</svg>
